<mxfile host="app.diagrams.net" modified="2023-02-08T17:35:10.764Z" agent="5.0 (Windows NT 10.0; Win64; x64) AppleWebKit/537.36 (KHTML, like Gecko) Chrome/109.0.0.0 Safari/537.36" etag="dakdOn7jW3O4yrtC3sIg" version="20.8.13" type="github">
  <diagram name="ページ1" id="SqCJXpXqDI-FRS1ZzRg1">
    <mxGraphModel dx="794" dy="732" grid="1" gridSize="10" guides="1" tooltips="1" connect="1" arrows="1" fold="1" page="1" pageScale="1" pageWidth="827" pageHeight="1169" math="0" shadow="0">
      <root>
        <mxCell id="0" />
        <mxCell id="1" parent="0" />
        <mxCell id="bur94nr5BYf2he4qger0-1" value="&lt;font style=&quot;font-size: 20px;&quot;&gt;Start(35)&lt;/font&gt;" style="rounded=0;whiteSpace=wrap;html=1;" parent="1" vertex="1">
          <mxGeometry x="110" y="160" width="120" height="30" as="geometry" />
        </mxCell>
        <mxCell id="bur94nr5BYf2he4qger0-5" style="edgeStyle=orthogonalEdgeStyle;rounded=0;orthogonalLoop=1;jettySize=auto;html=1;exitX=0.5;exitY=0;exitDx=0;exitDy=0;entryX=0.5;entryY=1;entryDx=0;entryDy=0;fontSize=20;endArrow=none;endFill=0;" parent="1" source="bur94nr5BYf2he4qger0-2" target="bur94nr5BYf2he4qger0-1" edge="1">
          <mxGeometry relative="1" as="geometry">
            <Array as="points">
              <mxPoint x="90" y="210" />
              <mxPoint x="170" y="210" />
            </Array>
          </mxGeometry>
        </mxCell>
        <mxCell id="bur94nr5BYf2he4qger0-2" value="&lt;span style=&quot;font-size: 20px;&quot;&gt;Corner7(1)&lt;/span&gt;" style="rounded=0;whiteSpace=wrap;html=1;" parent="1" vertex="1">
          <mxGeometry x="30" y="230" width="120" height="30" as="geometry" />
        </mxCell>
        <mxCell id="bur94nr5BYf2he4qger0-3" value="&lt;font style=&quot;font-size: 20px;&quot;&gt;Pass7to9(1)&lt;/font&gt;" style="rounded=0;whiteSpace=wrap;html=1;" parent="1" vertex="1">
          <mxGeometry x="30" y="300" width="120" height="30" as="geometry" />
        </mxCell>
        <mxCell id="bur94nr5BYf2he4qger0-6" style="edgeStyle=orthogonalEdgeStyle;rounded=0;orthogonalLoop=1;jettySize=auto;html=1;exitX=0.5;exitY=1;exitDx=0;exitDy=0;entryX=0.5;entryY=0;entryDx=0;entryDy=0;fontSize=20;endArrow=none;endFill=0;" parent="1" source="bur94nr5BYf2he4qger0-2" target="bur94nr5BYf2he4qger0-3" edge="1">
          <mxGeometry relative="1" as="geometry">
            <mxPoint x="90" y="240" as="sourcePoint" />
            <mxPoint x="170" y="200" as="targetPoint" />
            <Array as="points">
              <mxPoint x="90" y="260" />
              <mxPoint x="90" y="300" />
            </Array>
          </mxGeometry>
        </mxCell>
        <mxCell id="bur94nr5BYf2he4qger0-8" value="&lt;font style=&quot;font-size: 20px;&quot;&gt;Shoot9(1)&lt;/font&gt;" style="rounded=0;whiteSpace=wrap;html=1;" parent="1" vertex="1">
          <mxGeometry x="30" y="370" width="120" height="30" as="geometry" />
        </mxCell>
        <mxCell id="bur94nr5BYf2he4qger0-9" style="edgeStyle=orthogonalEdgeStyle;rounded=0;orthogonalLoop=1;jettySize=auto;html=1;exitX=0.5;exitY=1;exitDx=0;exitDy=0;fontSize=20;endArrow=none;endFill=0;entryX=0.5;entryY=0;entryDx=0;entryDy=0;" parent="1" source="bur94nr5BYf2he4qger0-3" target="bur94nr5BYf2he4qger0-8" edge="1">
          <mxGeometry relative="1" as="geometry">
            <mxPoint x="79.5" y="330" as="sourcePoint" />
            <mxPoint x="80" y="360" as="targetPoint" />
            <Array as="points">
              <mxPoint x="90" y="340" />
              <mxPoint x="90" y="340" />
            </Array>
          </mxGeometry>
        </mxCell>
        <mxCell id="bur94nr5BYf2he4qger0-11" style="edgeStyle=orthogonalEdgeStyle;rounded=0;orthogonalLoop=1;jettySize=auto;html=1;exitX=0.5;exitY=0;exitDx=0;exitDy=0;entryX=0.5;entryY=1;entryDx=0;entryDy=0;fontSize=20;endArrow=none;endFill=0;" parent="1" source="bur94nr5BYf2he4qger0-12" target="bur94nr5BYf2he4qger0-1" edge="1">
          <mxGeometry relative="1" as="geometry">
            <mxPoint x="320" y="190" as="targetPoint" />
            <Array as="points">
              <mxPoint x="250" y="210" />
              <mxPoint x="170" y="210" />
            </Array>
          </mxGeometry>
        </mxCell>
        <mxCell id="bur94nr5BYf2he4qger0-12" value="&lt;font style=&quot;font-size: 20px;&quot;&gt;Pass9to7(2)&lt;/font&gt;" style="rounded=0;whiteSpace=wrap;html=1;" parent="1" vertex="1">
          <mxGeometry x="190" y="230" width="120" height="30" as="geometry" />
        </mxCell>
        <mxCell id="bur94nr5BYf2he4qger0-13" value="&lt;font style=&quot;font-size: 20px;&quot;&gt;Pass7to9(1)&lt;/font&gt;" style="rounded=0;whiteSpace=wrap;html=1;" parent="1" vertex="1">
          <mxGeometry x="190" y="300" width="120" height="30" as="geometry" />
        </mxCell>
        <mxCell id="bur94nr5BYf2he4qger0-14" style="edgeStyle=orthogonalEdgeStyle;rounded=0;orthogonalLoop=1;jettySize=auto;html=1;exitX=0.5;exitY=1;exitDx=0;exitDy=0;entryX=0.5;entryY=0;entryDx=0;entryDy=0;fontSize=20;endArrow=none;endFill=0;" parent="1" source="bur94nr5BYf2he4qger0-12" target="bur94nr5BYf2he4qger0-13" edge="1">
          <mxGeometry relative="1" as="geometry">
            <mxPoint x="250" y="240" as="sourcePoint" />
            <mxPoint x="330" y="200" as="targetPoint" />
            <Array as="points">
              <mxPoint x="250" y="260" />
              <mxPoint x="250" y="300" />
            </Array>
          </mxGeometry>
        </mxCell>
        <mxCell id="bur94nr5BYf2he4qger0-15" value="&lt;font style=&quot;font-size: 20px;&quot;&gt;Start(35)&lt;/font&gt;" style="rounded=0;whiteSpace=wrap;html=1;" parent="1" vertex="1">
          <mxGeometry x="530" y="160" width="120" height="30" as="geometry" />
        </mxCell>
        <mxCell id="bur94nr5BYf2he4qger0-16" style="edgeStyle=orthogonalEdgeStyle;rounded=0;orthogonalLoop=1;jettySize=auto;html=1;exitX=0.5;exitY=0;exitDx=0;exitDy=0;entryX=0.5;entryY=1;entryDx=0;entryDy=0;fontSize=20;endArrow=none;endFill=0;" parent="1" source="bur94nr5BYf2he4qger0-17" target="bur94nr5BYf2he4qger0-15" edge="1">
          <mxGeometry relative="1" as="geometry">
            <Array as="points">
              <mxPoint x="506" y="210" />
              <mxPoint x="590" y="210" />
            </Array>
          </mxGeometry>
        </mxCell>
        <mxCell id="bur94nr5BYf2he4qger0-17" value="&lt;span style=&quot;font-size: 20px;&quot;&gt;CornerD(1)&lt;/span&gt;" style="rounded=0;whiteSpace=wrap;html=1;" parent="1" vertex="1">
          <mxGeometry x="446" y="230" width="120" height="30" as="geometry" />
        </mxCell>
        <mxCell id="bur94nr5BYf2he4qger0-18" value="&lt;font style=&quot;font-size: 20px;&quot;&gt;PassDtoD(1)&lt;/font&gt;" style="rounded=0;whiteSpace=wrap;html=1;" parent="1" vertex="1">
          <mxGeometry x="446" y="300" width="120" height="30" as="geometry" />
        </mxCell>
        <mxCell id="bur94nr5BYf2he4qger0-19" style="edgeStyle=orthogonalEdgeStyle;rounded=0;orthogonalLoop=1;jettySize=auto;html=1;exitX=0.5;exitY=1;exitDx=0;exitDy=0;entryX=0.5;entryY=0;entryDx=0;entryDy=0;fontSize=20;endArrow=none;endFill=0;" parent="1" source="bur94nr5BYf2he4qger0-17" target="bur94nr5BYf2he4qger0-18" edge="1">
          <mxGeometry relative="1" as="geometry">
            <mxPoint x="510" y="240" as="sourcePoint" />
            <mxPoint x="590" y="200" as="targetPoint" />
            <Array as="points">
              <mxPoint x="506" y="260" />
              <mxPoint x="506" y="300" />
            </Array>
          </mxGeometry>
        </mxCell>
        <mxCell id="bur94nr5BYf2he4qger0-20" value="&lt;font style=&quot;font-size: 20px;&quot;&gt;ShootD(1)&lt;/font&gt;" style="rounded=0;whiteSpace=wrap;html=1;" parent="1" vertex="1">
          <mxGeometry x="446" y="370" width="120" height="30" as="geometry" />
        </mxCell>
        <mxCell id="bur94nr5BYf2he4qger0-21" style="edgeStyle=orthogonalEdgeStyle;rounded=0;orthogonalLoop=1;jettySize=auto;html=1;exitX=0.5;exitY=1;exitDx=0;exitDy=0;fontSize=20;endArrow=none;endFill=0;entryX=0.5;entryY=0;entryDx=0;entryDy=0;" parent="1" source="bur94nr5BYf2he4qger0-18" target="bur94nr5BYf2he4qger0-20" edge="1">
          <mxGeometry relative="1" as="geometry">
            <mxPoint x="499.5" y="330" as="sourcePoint" />
            <mxPoint x="500" y="360" as="targetPoint" />
            <Array as="points" />
          </mxGeometry>
        </mxCell>
        <mxCell id="bur94nr5BYf2he4qger0-22" style="edgeStyle=orthogonalEdgeStyle;rounded=0;orthogonalLoop=1;jettySize=auto;html=1;exitX=0.5;exitY=0;exitDx=0;exitDy=0;entryX=0.5;entryY=1;entryDx=0;entryDy=0;fontSize=20;endArrow=none;endFill=0;" parent="1" source="bur94nr5BYf2he4qger0-23" target="bur94nr5BYf2he4qger0-15" edge="1">
          <mxGeometry relative="1" as="geometry">
            <mxPoint x="740" y="190" as="targetPoint" />
            <Array as="points">
              <mxPoint x="666" y="210" />
              <mxPoint x="590" y="210" />
            </Array>
          </mxGeometry>
        </mxCell>
        <mxCell id="bur94nr5BYf2he4qger0-23" value="&lt;font style=&quot;font-size: 20px;&quot;&gt;PassHtoH(2)&lt;/font&gt;" style="rounded=0;whiteSpace=wrap;html=1;" parent="1" vertex="1">
          <mxGeometry x="606" y="230" width="120" height="30" as="geometry" />
        </mxCell>
        <mxCell id="bur94nr5BYf2he4qger0-24" value="&lt;font style=&quot;font-size: 20px;&quot;&gt;PassHtoH(1)&lt;/font&gt;" style="rounded=0;whiteSpace=wrap;html=1;" parent="1" vertex="1">
          <mxGeometry x="606" y="300" width="120" height="30" as="geometry" />
        </mxCell>
        <mxCell id="bur94nr5BYf2he4qger0-25" style="edgeStyle=orthogonalEdgeStyle;rounded=0;orthogonalLoop=1;jettySize=auto;html=1;exitX=0.5;exitY=1;exitDx=0;exitDy=0;entryX=0.5;entryY=0;entryDx=0;entryDy=0;fontSize=20;endArrow=none;endFill=0;" parent="1" source="bur94nr5BYf2he4qger0-23" target="bur94nr5BYf2he4qger0-24" edge="1">
          <mxGeometry relative="1" as="geometry">
            <mxPoint x="670" y="240" as="sourcePoint" />
            <mxPoint x="750" y="200" as="targetPoint" />
            <Array as="points">
              <mxPoint x="666" y="270" />
              <mxPoint x="666" y="270" />
            </Array>
          </mxGeometry>
        </mxCell>
        <mxCell id="bur94nr5BYf2he4qger0-26" value="" style="triangle;whiteSpace=wrap;html=1;fontSize=20;strokeColor=none;fillColor=#000000;" parent="1" vertex="1">
          <mxGeometry x="360" y="240" width="20" height="80" as="geometry" />
        </mxCell>
        <mxCell id="bur94nr5BYf2he4qger0-28" value="unum" style="text;html=1;strokeColor=none;fillColor=none;align=center;verticalAlign=middle;whiteSpace=wrap;rounded=0;fontSize=20;" parent="1" vertex="1">
          <mxGeometry x="90" y="420" width="160" height="30" as="geometry" />
        </mxCell>
        <mxCell id="bur94nr5BYf2he4qger0-29" value="grid16" style="text;html=1;strokeColor=none;fillColor=none;align=center;verticalAlign=middle;whiteSpace=wrap;rounded=0;fontSize=20;" parent="1" vertex="1">
          <mxGeometry x="510" y="420" width="160" height="30" as="geometry" />
        </mxCell>
      </root>
    </mxGraphModel>
  </diagram>
</mxfile>
